<svg width="398" height="262" viewBox="0 0 398 262" fill="none" xmlns="http://www.w3.org/2000/svg">
<path d="M130.186 368.189C60.8533 368.189 4.64674 311.903 4.64674 242.471C4.64674 173.038 60.8533 116.753 130.186 116.753C199.519 116.753 255.726 173.038 255.726 242.471C255.726 311.903 199.519 368.189 130.186 368.189Z" stroke="#32DF8F"/>
<path d="M143.454 373.171C65.8775 373.171 2.98842 310.194 2.98843 232.506C2.98843 154.818 65.8775 91.8413 143.454 91.8413C221.03 91.8413 283.919 154.818 283.919 232.506C283.919 310.194 221.03 373.171 143.454 373.171Z" stroke="#32DF8F"/>
<path d="M154.233 378.153C69.3297 378.153 0.500691 309.228 0.500695 224.203C0.500699 139.177 69.3297 70.2519 154.233 70.2519C239.137 70.252 307.966 139.177 307.966 224.203C307.966 309.228 239.137 378.153 154.233 378.153Z" stroke="#32DF8F"/>
<path d="M169.988 381.475C78.6736 381.475 4.64714 307.345 4.64715 215.899C4.64715 124.453 78.6736 50.3227 169.989 50.3227C261.303 50.3228 335.33 124.453 335.33 215.899C335.33 307.345 261.303 381.475 169.988 381.475Z" stroke="#32DF8F"/>
<path d="M185.329 384.796C87.8313 384.796 8.79299 305.647 8.79299 208.01C8.793 110.373 87.8314 31.2236 185.329 31.2236C282.826 31.2236 361.864 110.373 361.864 208.01C361.864 305.647 282.826 384.796 185.329 384.796Z" stroke="#32DF8F"/>
<path d="M202.742 388.948C95.6275 388.948 8.79299 301.992 8.79299 194.724C8.793 87.4564 95.6276 0.499987 202.742 0.499992C309.856 0.499996 396.691 87.4565 396.691 194.724C396.691 301.992 309.856 388.948 202.742 388.948Z" stroke="#32DF8F"/>
</svg>
